<mxfile host="app.diagrams.net" agent="Mozilla/5.0 (Windows NT 10.0; Win64; x64) AppleWebKit/537.36 (KHTML, like Gecko) Chrome/136.0.0.0 Safari/537.36 Edg/136.0.0.0" version="27.0.6">
  <diagram name="StrÃ¡nka-1" id="yFNjFwnHGVZHmy7ZPMLa">
    <mxGraphModel dx="1418" dy="786" grid="1" gridSize="10" guides="1" tooltips="1" connect="1" arrows="1" fold="1" page="1" pageScale="1" pageWidth="827" pageHeight="1169" math="0" shadow="0">
      <root>
        <mxCell id="0" />
        <mxCell id="1" parent="0" />
        <mxCell id="mjRh3UYYaqotZZ3Q9qid-5" value="&lt;p style=&quot;margin:0px;margin-top:4px;text-align:center;&quot;&gt;MainApp&lt;/p&gt;&lt;hr size=&quot;1&quot; style=&quot;border-style:solid;&quot;&gt;&lt;p style=&quot;margin:0px;margin-left:4px;&quot;&gt;+ vybrane znameni&lt;br&gt;+ frames&lt;/p&gt;&lt;hr size=&quot;1&quot; style=&quot;border-style:solid;&quot;&gt;&lt;p style=&quot;margin:0px;margin-left:4px;&quot;&gt;+ method1(Type): show_frme&lt;br&gt;&lt;/p&gt;" style="verticalAlign=top;align=left;overflow=fill;html=1;whiteSpace=wrap;" vertex="1" parent="1">
          <mxGeometry x="350" y="40" width="190" height="140" as="geometry" />
        </mxCell>
        <mxCell id="mjRh3UYYaqotZZ3Q9qid-6" value="&lt;p style=&quot;margin:0px;margin-top:4px;text-align:center;&quot;&gt;BaseFrame&lt;/p&gt;&lt;hr size=&quot;1&quot; style=&quot;border-style:solid;&quot;&gt;&lt;p style=&quot;margin:0px;margin-left:4px;&quot;&gt;+ controller&lt;br&gt;+&amp;nbsp;&lt;/p&gt;&lt;hr size=&quot;1&quot; style=&quot;border-style:solid;&quot;&gt;&lt;p style=&quot;margin:0px;margin-left:4px;&quot;&gt;+ method1(Type): show&lt;br&gt;&lt;/p&gt;" style="verticalAlign=top;align=left;overflow=fill;html=1;whiteSpace=wrap;" vertex="1" parent="1">
          <mxGeometry x="350" y="260" width="190" height="140" as="geometry" />
        </mxCell>
        <mxCell id="mjRh3UYYaqotZZ3Q9qid-7" value="&lt;p style=&quot;margin:0px;margin-top:4px;text-align:center;&quot;&gt;FrameOne&lt;/p&gt;&lt;hr size=&quot;1&quot; style=&quot;border-style:solid;&quot;&gt;&lt;p style=&quot;margin:0px;margin-left:4px;&quot;&gt;+ controller&lt;br&gt;+&amp;nbsp;&lt;/p&gt;&lt;hr size=&quot;1&quot; style=&quot;border-style:solid;&quot;&gt;&lt;p style=&quot;margin:0px;margin-left:4px;&quot;&gt;+ method1(Type): potvrdit_konec&lt;br&gt;&lt;/p&gt;" style="verticalAlign=top;align=left;overflow=fill;html=1;whiteSpace=wrap;" vertex="1" parent="1">
          <mxGeometry x="80" y="480" width="190" height="140" as="geometry" />
        </mxCell>
        <mxCell id="mjRh3UYYaqotZZ3Q9qid-8" value="&lt;p style=&quot;margin:0px;margin-top:4px;text-align:center;&quot;&gt;FrameTwo&lt;/p&gt;&lt;hr size=&quot;1&quot; style=&quot;border-style:solid;&quot;&gt;&lt;p style=&quot;margin:0px;margin-left:4px;&quot;&gt;+ controller&lt;br&gt;+ popisy&lt;/p&gt;&lt;hr size=&quot;1&quot; style=&quot;border-style:solid;&quot;&gt;&lt;p style=&quot;margin:0px;margin-left:4px;&quot;&gt;+ method1(Type): potvrdit_konec&lt;br&gt;&lt;/p&gt;&lt;p style=&quot;margin:0px;margin-left:4px;&quot;&gt;+ method: prejdi_na_vysledek&lt;/p&gt;" style="verticalAlign=top;align=left;overflow=fill;html=1;whiteSpace=wrap;" vertex="1" parent="1">
          <mxGeometry x="350" y="480" width="190" height="140" as="geometry" />
        </mxCell>
        <mxCell id="mjRh3UYYaqotZZ3Q9qid-9" value="&lt;p style=&quot;margin:0px;margin-top:4px;text-align:center;&quot;&gt;FrameThree&lt;/p&gt;&lt;hr size=&quot;1&quot; style=&quot;border-style:solid;&quot;&gt;&lt;p style=&quot;margin:0px;margin-left:4px;&quot;&gt;+ controller&lt;br&gt;+&amp;nbsp;&lt;/p&gt;&lt;hr size=&quot;1&quot; style=&quot;border-style:solid;&quot;&gt;&lt;p style=&quot;margin:0px;margin-left:4px;&quot;&gt;+ method: aktualizuj_text&lt;br&gt;&lt;/p&gt;" style="verticalAlign=top;align=left;overflow=fill;html=1;whiteSpace=wrap;" vertex="1" parent="1">
          <mxGeometry x="610" y="480" width="190" height="140" as="geometry" />
        </mxCell>
        <mxCell id="mjRh3UYYaqotZZ3Q9qid-10" value="" style="endArrow=block;endSize=16;endFill=0;html=1;rounded=0;exitX=0.442;exitY=0.007;exitDx=0;exitDy=0;exitPerimeter=0;entryX=0.447;entryY=1;entryDx=0;entryDy=0;entryPerimeter=0;" edge="1" parent="1" source="mjRh3UYYaqotZZ3Q9qid-6" target="mjRh3UYYaqotZZ3Q9qid-5">
          <mxGeometry x="0.0369" y="-86" width="160" relative="1" as="geometry">
            <mxPoint x="570" y="190" as="sourcePoint" />
            <mxPoint x="730" y="190" as="targetPoint" />
            <mxPoint as="offset" />
          </mxGeometry>
        </mxCell>
        <mxCell id="mjRh3UYYaqotZZ3Q9qid-11" value="" style="endArrow=block;endSize=16;endFill=0;html=1;rounded=0;entryX=0;entryY=1;entryDx=0;entryDy=0;exitX=0.75;exitY=0;exitDx=0;exitDy=0;" edge="1" parent="1" source="mjRh3UYYaqotZZ3Q9qid-7" target="mjRh3UYYaqotZZ3Q9qid-6">
          <mxGeometry x="-0.9686" y="140" width="160" relative="1" as="geometry">
            <mxPoint x="120" y="420" as="sourcePoint" />
            <mxPoint x="280" y="420" as="targetPoint" />
            <mxPoint as="offset" />
          </mxGeometry>
        </mxCell>
        <mxCell id="mjRh3UYYaqotZZ3Q9qid-12" value="" style="endArrow=block;endSize=16;endFill=0;html=1;rounded=0;exitX=0.442;exitY=0.007;exitDx=0;exitDy=0;exitPerimeter=0;entryX=0.447;entryY=1;entryDx=0;entryDy=0;entryPerimeter=0;" edge="1" parent="1">
          <mxGeometry x="0.0369" y="-86" width="160" relative="1" as="geometry">
            <mxPoint x="444.5" y="480" as="sourcePoint" />
            <mxPoint x="445.5" y="399" as="targetPoint" />
            <mxPoint as="offset" />
          </mxGeometry>
        </mxCell>
        <mxCell id="mjRh3UYYaqotZZ3Q9qid-13" value="" style="endArrow=block;endSize=16;endFill=0;html=1;rounded=0;entryX=0.921;entryY=1.021;entryDx=0;entryDy=0;exitX=0.111;exitY=-0.021;exitDx=0;exitDy=0;exitPerimeter=0;entryPerimeter=0;" edge="1" parent="1" source="mjRh3UYYaqotZZ3Q9qid-9" target="mjRh3UYYaqotZZ3Q9qid-6">
          <mxGeometry x="-0.9686" y="140" width="160" relative="1" as="geometry">
            <mxPoint x="430" y="470" as="sourcePoint" />
            <mxPoint x="557" y="390" as="targetPoint" />
            <mxPoint as="offset" />
          </mxGeometry>
        </mxCell>
        <mxCell id="mjRh3UYYaqotZZ3Q9qid-14" value="&lt;p style=&quot;margin:0px;margin-top:4px;text-align:center;&quot;&gt;horoskop_scrapper&lt;/p&gt;&lt;hr size=&quot;1&quot; style=&quot;border-style:solid;&quot;&gt;&lt;p style=&quot;margin:0px;margin-left:4px;&quot;&gt;+ controller&lt;br&gt;+&amp;nbsp;&lt;/p&gt;&lt;hr size=&quot;1&quot; style=&quot;border-style:solid;&quot;&gt;&lt;p style=&quot;margin:0px;margin-left:4px;&quot;&gt;+ method: ziskej_popis_znameni&lt;br&gt;&lt;/p&gt;" style="verticalAlign=top;align=left;overflow=fill;html=1;whiteSpace=wrap;" vertex="1" parent="1">
          <mxGeometry x="360" y="720" width="190" height="140" as="geometry" />
        </mxCell>
        <mxCell id="mjRh3UYYaqotZZ3Q9qid-15" value="" style="endArrow=open;endFill=1;endSize=12;html=1;rounded=0;exitX=0.5;exitY=0;exitDx=0;exitDy=0;" edge="1" parent="1" source="mjRh3UYYaqotZZ3Q9qid-14">
          <mxGeometry width="160" relative="1" as="geometry">
            <mxPoint x="330" y="610" as="sourcePoint" />
            <mxPoint x="450" y="620" as="targetPoint" />
          </mxGeometry>
        </mxCell>
      </root>
    </mxGraphModel>
  </diagram>
</mxfile>
